<svg width="28" height="32" viewBox="0 0 28 32" fill="none" xmlns="http://www.w3.org/2000/svg">
<path d="M8.88889 0C3.11538 0 0 4.1523 0 8.05926C0 10.0021 0.608474 11.674 1.75976 12.8941C2.9453 14.1506 4.59093 14.8148 6.51852 14.8148C8.48225 14.8148 10.0741 13.223 10.0741 11.2593C10.0741 9.29553 8.48225 7.7037 6.51852 7.7037C5.7414 7.7037 5.02258 7.95302 4.43758 8.37597C4.09165 8.62609 3.55556 8.48614 3.55556 8.05926C3.55556 5.82116 5.3875 3.55556 8.88889 3.55556C13.3528 3.55556 16.5926 7.79236 16.5926 13.6296C16.5926 19.2069 14.1543 22.6939 12.1089 24.637C10.0563 26.5871 7.39508 27.8944 4.73354 28.3057C3.76322 28.4557 2.96296 29.2404 2.96296 30.2222C2.96296 31.2041 3.76145 32.0098 4.73667 31.896C8.30871 31.4792 11.8107 29.8246 14.5577 27.2148C18.1627 23.7901 20.1481 18.9653 20.1481 13.6296C20.1481 9.84059 19.017 6.38661 16.9631 3.90376C14.8805 1.38643 12.013 0 8.88889 0Z" fill="#F4F7FF"/>
<path d="M25.4814 8.88884C26.4632 8.88884 27.2592 8.0929 27.2592 7.11106C27.2592 6.12922 26.4632 5.33328 25.4814 5.33328C24.4996 5.33328 23.7036 6.12922 23.7036 7.11106C23.7036 8.0929 24.4996 8.88884 25.4814 8.88884Z" fill="#F4F7FF"/>
<path d="M25.4814 16C26.4632 16 27.2592 15.2041 27.2592 14.2222C27.2592 13.2404 26.4632 12.4444 25.4814 12.4444C24.4996 12.4444 23.7036 13.2404 23.7036 14.2222C23.7036 15.2041 24.4996 16 25.4814 16Z" fill="#F4F7FF"/>
</svg>
