<svg width="32" height="32" viewBox="0 0 32 32" fill="none" xmlns="http://www.w3.org/2000/svg">
<path d="M29.4005 0.092521L9.40117 5.99849C8.9952 6.12601 8.64049 6.37969 8.38859 6.72264C8.13668 7.0656 8.00072 7.47995 8.00047 7.90548V24.2446C7.34552 24.0856 6.6743 24.0034 6.00035 23.9995C2.68766 23.9995 0 25.7909 0 27.9998C0 30.2086 2.68766 32 6.00035 32C9.31304 32 12.0007 30.2086 12.0007 27.9998V13.3939L28.0016 8.70615V20.2449C27.3468 20.0854 26.6755 20.003 26.0015 19.9993C22.6888 19.9993 20.0012 21.7907 20.0012 23.9995C20.0012 26.2084 22.6888 27.9998 26.0015 27.9998C29.3142 27.9998 32.0019 26.209 32.0019 23.9995V1.99826C32.0016 1.68426 31.9274 1.37475 31.7852 1.09477C31.6431 0.814782 31.437 0.572194 31.1838 0.386634C30.9305 0.201074 30.637 0.0777556 30.3272 0.02666C30.0174 -0.0244356 29.6999 -0.00187327 29.4005 0.092521Z" fill="#F4F7FF"/>
</svg>
