<svg width="100" height="100" viewBox="0 0 100 100" fill="none" xmlns="http://www.w3.org/2000/svg">
<rect x="1" y="1" width="98" height="98" rx="9" stroke="#F4F7FF" stroke-width="2"/>
<path d="M50.4623 49.0924L50.4672 42.9764C50.4672 42.7934 50.3945 42.618 50.2651 42.4886C50.1358 42.3593 49.9603 42.2866 49.7773 42.2866C49.5944 42.2866 49.4189 42.3593 49.2896 42.4886C49.1602 42.618 49.0875 42.7934 49.0875 42.9764L49.0924 49.0924L42.9764 49.0876C42.7934 49.0876 42.618 49.1602 42.4886 49.2896C42.3592 49.419 42.2866 49.5944 42.2866 49.7774C42.2866 49.9603 42.3592 50.1358 42.4886 50.2651C42.618 50.3945 42.7934 50.4672 42.9764 50.4672L49.0924 50.4623L49.0875 56.5783C49.0872 56.669 49.1047 56.7589 49.1393 56.8428C49.1738 56.9266 49.2246 57.0028 49.2887 57.0669C49.3529 57.1311 49.4291 57.1819 49.5129 57.2164C49.5968 57.2509 49.6867 57.2685 49.7773 57.2682C49.868 57.2685 49.9579 57.2509 50.0418 57.2164C50.1256 57.1819 50.2018 57.1311 50.2659 57.0669C50.3301 57.0028 50.3809 56.9266 50.4154 56.8428C50.4499 56.7589 50.4675 56.669 50.4672 56.5783L50.4623 50.4623L56.5783 50.4672C56.669 50.4676 56.7589 50.45 56.8427 50.4154C56.9266 50.3809 57.0028 50.3301 57.0669 50.266C57.131 50.2018 57.1818 50.1256 57.2164 50.0418C57.2509 49.9579 57.2685 49.8681 57.2681 49.7774C57.2685 49.6867 57.2509 49.5968 57.2164 49.5129C57.1818 49.4291 57.131 49.3529 57.0669 49.2888C57.0028 49.2246 56.9266 49.1738 56.8427 49.1393C56.7589 49.1048 56.669 49.0872 56.5783 49.0876L50.4623 49.0924Z" fill="#F4F7FF"/>
</svg>
