<svg width="21" height="21" viewBox="0 0 21 21" fill="none" xmlns="http://www.w3.org/2000/svg">
<path d="M11.5407 9.67253L11.5474 1.33162C11.5474 1.08211 11.4482 0.842827 11.2718 0.666401C11.0954 0.489975 10.8561 0.390861 10.6066 0.390861C10.3571 0.390861 10.1178 0.489975 9.94139 0.666401C9.76496 0.842826 9.66585 1.08211 9.66585 1.33161L9.67247 9.67253L1.33156 9.6659C1.08205 9.6659 0.84277 9.76502 0.666345 9.94144C0.489919 10.1179 0.390804 10.3572 0.390804 10.6067C0.390804 10.8562 0.489919 11.0954 0.666345 11.2719C0.84277 11.4483 1.08205 11.5474 1.33156 11.5474L9.67247 11.5408L9.66585 19.8817C9.66534 20.0054 9.68933 20.1279 9.73642 20.2423C9.78352 20.3567 9.8528 20.4606 9.94026 20.548C10.0277 20.6355 10.1316 20.7048 10.246 20.7519C10.3604 20.799 10.4829 20.823 10.6066 20.8225C10.7303 20.823 10.8528 20.799 10.9672 20.7519C11.0816 20.7048 11.1855 20.6355 11.2729 20.548C11.3604 20.4606 11.4297 20.3567 11.4768 20.2423C11.5239 20.1279 11.5479 20.0054 11.5474 19.8817L11.5407 11.5408L19.8816 11.5474C20.0053 11.5479 20.1279 11.5239 20.2423 11.4768C20.3566 11.4297 20.4605 11.3605 20.548 11.273C20.6354 11.1855 20.7047 11.0816 20.7518 10.9673C20.7989 10.8529 20.8229 10.7303 20.8224 10.6067C20.8229 10.483 20.7989 10.3604 20.7518 10.246C20.7047 10.1317 20.6354 10.0278 20.548 9.94031C20.4605 9.85286 20.3566 9.78358 20.2423 9.73648C20.1279 9.68938 20.0053 9.6654 19.8816 9.6659L11.5407 9.67253Z" fill="#F4F7FF"/>
</svg>
