<svg width="24" height="24" viewBox="0 0 24 24" fill="none" xmlns="http://www.w3.org/2000/svg">
<path d="M14.1135 11.9974L23.5566 2.56928C23.8389 2.28702 23.9974 1.90421 23.9974 1.50505C23.9974 1.10588 23.8389 0.723069 23.5566 0.440818C23.2744 0.158567 22.8916 0 22.4924 0C22.0932 0 21.7104 0.158567 21.4282 0.440818L12 9.88397L2.57183 0.440818C2.28958 0.158567 1.90677 3.54395e-07 1.5076 3.57369e-07C1.10844 3.60343e-07 0.725627 0.158567 0.443376 0.440818C0.161125 0.723069 0.00255841 1.10588 0.0025584 1.50505C0.0025584 1.90421 0.161125 2.28702 0.443376 2.56928L9.88653 11.9974L0.443376 21.4256C0.302885 21.565 0.191375 21.7307 0.115277 21.9134C0.0391793 22.096 0 22.292 0 22.4898C0 22.6877 0.0391793 22.8836 0.115277 23.0663C0.191375 23.2489 0.302885 23.4147 0.443376 23.5541C0.58272 23.6946 0.748501 23.8061 0.931157 23.8822C1.11381 23.9583 1.30973 23.9974 1.5076 23.9974C1.70548 23.9974 1.9014 23.9583 2.08405 23.8822C2.26671 23.8061 2.43249 23.6946 2.57183 23.5541L12 14.1109L21.4282 23.5541C21.5675 23.6946 21.7333 23.8061 21.9159 23.8822C22.0986 23.9583 22.2945 23.9974 22.4924 23.9974C22.6903 23.9974 22.8862 23.9583 23.0688 23.8822C23.2515 23.8061 23.4173 23.6946 23.5566 23.5541C23.6971 23.4147 23.8086 23.2489 23.8847 23.0663C23.9608 22.8836 24 22.6877 24 22.4898C24 22.292 23.9608 22.096 23.8847 21.9134C23.8086 21.7307 23.6971 21.565 23.5566 21.4256L14.1135 11.9974Z" fill="#1E1E1E"/>
</svg>
