<svg width="226" height="61" viewBox="0 0 226 61" fill="none" xmlns="http://www.w3.org/2000/svg">
<path d="M225.434 14.2975H199.698V23.3662H220.577V37.1736H199.698V46.6508H225.434V60.4581H185.296V0.571873L225.434 0.490173V14.2975Z" fill="#1E1E1E"/>
<path d="M169.738 0H184.894L163.726 60.1096H150.178L130.111 0H145.182L157.121 36.878L169.738 0Z" fill="#1E1E1E"/>
<path d="M125.691 60.1096H123.236H103.676H101.136H85.9795L107.148 6.10352e-05H120.695L140.763 60.1096H125.691ZM101.136 60.1096H125.691L113.752 24.4042L101.136 60.1096Z" fill="#1E1E1E"/>
<path d="M82.9906 0H98.1536L79.5639 60.1096H65.2574L56.9477 30.1768L49.7517 60.1096H35.3596L14.4568 0H29.7055L41.3563 33.2677L49.3233 0H63.5441L72.7962 33.105L82.9906 0Z" fill="#1E1E1E"/>
<path d="M14.828 53.3503C14.828 55.3111 14.0895 56.9995 12.6124 58.4157C11.192 59.7773 9.45927 60.4582 7.41402 60.4582C5.36877 60.4582 3.60759 59.7773 2.13047 58.4157C0.710155 56.9995 0 55.3111 0 53.3503C0 51.3895 0.710155 49.7282 2.13047 48.3665C3.60759 46.9504 5.36877 46.2423 7.41402 46.2423C9.45927 46.2423 11.192 46.9504 12.6124 48.3665C14.0895 49.7282 14.828 51.3895 14.828 53.3503Z" fill="#1E1E1E"/>
</svg>
