<svg width="21" height="24" viewBox="0 0 21 24" fill="none" xmlns="http://www.w3.org/2000/svg">
<path d="M10.2291 3.90165e-05C10.2337 -1.78962e-05 10.2337 0 10.2291 3.90165e-05L2.9239 7.30978L5.11683 9.38052L8.7717 5.60112V16.6902C9.50268 16.6902 9.42501 16.6891 10.2337 16.6891C11.0423 16.6891 10.9646 16.6902 11.6956 16.6902V5.60112L15.3505 9.38052L17.5434 7.30978L10.2337 0L10.2291 3.90165e-05ZM2.9239 15.2283C0 15.2283 2.27059 15.2272 1.46195 15.2272C0.653309 15.2272 2.9239 15.2283 0 15.2283V24C1.46195 24 1.9645 23.9989 4.38585 23.9989L20.4673 24C20.4673 20.7106 20.4673 22.0344 20.4673 19.613V15.2283C18.2744 15.2283 19.814 15.2272 19.0054 15.2272C18.1967 15.2272 19.0054 15.2283 17.5434 15.2283V21.0761C16.0815 21.0761 16.8901 21.075 16.0815 21.075H2.9239C2.9239 19.6141 2.9239 20.4216 2.9239 19.613V15.2283Z" fill="#F4F7FF"/>
</svg>
