<svg width="12" height="12" viewBox="0 0 12 12" fill="none" xmlns="http://www.w3.org/2000/svg">
<path d="M6.1544 5.15811L6.15793 0.710095C6.15793 0.577041 6.10508 0.449436 6.01099 0.355352C5.91691 0.261268 5.78931 0.208413 5.65625 0.208413C5.5232 0.208413 5.39559 0.261268 5.30151 0.355352C5.20742 0.449436 5.15457 0.57704 5.15457 0.710095L5.1581 5.15811L0.710089 5.15458C0.577034 5.15458 0.44943 5.20743 0.355346 5.30151C0.261262 5.3956 0.208407 5.5232 0.208407 5.65626C0.208407 5.78931 0.261262 5.91692 0.355346 6.011C0.44943 6.10508 0.577034 6.15794 0.710089 6.15794L5.1581 6.15441L5.15457 10.6024C5.1543 10.6684 5.16709 10.7337 5.19221 10.7947C5.21732 10.8557 5.25427 10.9111 5.30091 10.9578C5.34755 11.0044 5.40296 11.0413 5.46395 11.0665C5.52494 11.0916 5.59029 11.1044 5.65625 11.1041C5.72221 11.1044 5.78757 11.0916 5.84856 11.0665C5.90955 11.0413 5.96496 11.0044 6.0116 10.9578C6.05824 10.9111 6.09518 10.8557 6.1203 10.7947C6.14541 10.7337 6.1582 10.6684 6.15793 10.6024L6.1544 6.15441L10.6024 6.15794C10.6684 6.15821 10.7337 6.14542 10.7947 6.1203C10.8557 6.09519 10.9111 6.05824 10.9578 6.0116C11.0044 5.96496 11.0413 5.90955 11.0665 5.84856C11.0916 5.78757 11.1044 5.72222 11.1041 5.65626C11.1044 5.5903 11.0916 5.52494 11.0665 5.46395C11.0413 5.40296 11.0044 5.34755 10.9578 5.30091C10.9111 5.25427 10.8557 5.21733 10.7947 5.19221C10.7337 5.1671 10.6684 5.15431 10.6024 5.15458L6.1544 5.15811Z" fill="#F4F7FF"/>
</svg>
