<svg width="75" height="53" viewBox="0 0 75 53" fill="none" xmlns="http://www.w3.org/2000/svg">
<path d="M74.9827 18.5736C75.1512 13.6971 74.0848 8.85703 71.8824 4.5029C70.3881 2.71629 68.3144 1.51061 66.0225 1.09596C56.5427 0.235789 47.0238 -0.116765 37.5064 0.0398043C28.0237 -0.123871 18.539 0.217306 9.0925 1.06189C7.22488 1.40162 5.49653 2.27763 4.11836 3.58302C1.05212 6.41078 0.711423 11.2486 0.370729 15.337C-0.123576 22.6877 -0.123576 30.0633 0.370729 37.4139C0.469293 39.715 0.811907 41.9991 1.39281 44.2278C1.8036 45.9486 2.63472 47.5406 3.81174 48.8613C5.19928 50.2358 6.96788 51.1617 8.88808 51.5187C16.2332 52.4253 23.6341 52.8011 31.0332 52.643C42.9575 52.8133 53.4168 52.643 65.784 51.689C67.7513 51.3539 69.5697 50.4269 70.9966 49.0316C71.9504 48.0774 72.6629 46.9094 73.0748 45.6247C74.2933 41.886 74.8917 37.9731 74.8465 34.0411C74.9827 32.1332 74.9827 20.6177 74.9827 18.5736ZM29.8067 36.0852V14.9963L49.9758 25.5919C44.3203 28.7262 36.8591 32.2695 29.8067 36.0852Z" fill="#FB5607"/>
</svg>
