<svg width="32" height="26" viewBox="0 0 32 26" fill="none" xmlns="http://www.w3.org/2000/svg">
<path d="M16.6832 0.131497C16.4234 0.0191172 16.1385 -0.0223269 15.8575 0.0113944C15.5765 0.0451158 15.3094 0.152795 15.0836 0.323442L7.43784 6.36969H1.59954C1.17531 6.36969 0.768465 6.53821 0.468493 6.83818C0.168522 7.13815 0 7.545 0 7.96923V17.5664C0 17.9907 0.168522 18.3975 0.468493 18.6975C0.768465 18.9975 1.17531 19.166 1.59954 19.166H7.43784L15.0037 25.2122C15.2851 25.438 15.6346 25.562 15.9954 25.5641C16.2343 25.5681 16.4705 25.5131 16.6832 25.4042C16.9554 25.2745 17.1854 25.0706 17.3467 24.8159C17.508 24.5612 17.594 24.2661 17.5949 23.9646V1.57108C17.594 1.26959 17.508 0.974479 17.3467 0.719773C17.1854 0.465067 16.9554 0.261138 16.6832 0.131497ZM14.3958 20.6376L8.98939 16.3188C8.70797 16.093 8.35848 15.969 7.99768 15.9669H3.19907V9.56876H7.99768C8.35848 9.56667 8.70797 9.44265 8.98939 9.21686L14.3958 4.89812V20.6376ZM28.6477 12.7678L31.5269 9.90466C31.676 9.75553 31.7943 9.57847 31.875 9.38361C31.9557 9.18876 31.9973 8.97991 31.9973 8.76899C31.9973 8.55808 31.9557 8.34923 31.875 8.15437C31.7943 7.95951 31.676 7.78246 31.5269 7.63332C31.3777 7.48418 31.2007 7.36588 31.0058 7.28517C30.811 7.20445 30.6021 7.16291 30.3912 7.16291C30.1803 7.16291 29.9714 7.20445 29.7766 7.28517C29.5817 7.36588 29.4047 7.48418 29.2555 7.63332L26.3923 10.5125L23.5292 7.63332C23.228 7.33212 22.8195 7.16291 22.3935 7.16291C21.9675 7.16291 21.559 7.33212 21.2578 7.63332C20.9566 7.93452 20.7874 8.34303 20.7874 8.76899C20.7874 9.19495 20.9566 9.60347 21.2578 9.90466L24.137 12.7678L21.2578 15.631C21.1079 15.7797 20.9889 15.9566 20.9077 16.1515C20.8265 16.3464 20.7847 16.5555 20.7847 16.7667C20.7847 16.9778 20.8265 17.1869 20.9077 17.3818C20.9889 17.5767 21.1079 17.7536 21.2578 17.9023C21.4065 18.0523 21.5834 18.1713 21.7784 18.2525C21.9733 18.3337 22.1824 18.3755 22.3935 18.3755C22.6047 18.3755 22.8137 18.3337 23.0087 18.2525C23.2036 18.1713 23.3805 18.0523 23.5292 17.9023L26.3923 15.0232L29.2555 17.9023C29.4042 18.0523 29.5811 18.1713 29.776 18.2525C29.971 18.3337 30.18 18.3755 30.3912 18.3755C30.6023 18.3755 30.8114 18.3337 31.0063 18.2525C31.2013 18.1713 31.3782 18.0523 31.5269 17.9023C31.6768 17.7536 31.7958 17.5767 31.877 17.3818C31.9582 17.1869 32 16.9778 32 16.7667C32 16.5555 31.9582 16.3464 31.877 16.1515C31.7958 15.9566 31.6768 15.7797 31.5269 15.631L28.6477 12.7678Z" fill="#F4F7FF"/>
</svg>
