<svg width="37" height="32" viewBox="0 0 37 32" fill="none" xmlns="http://www.w3.org/2000/svg">
<path d="M30.8102 6.43199L36.0624 3.04483C36.1873 2.96159 36.2946 2.85456 36.3781 2.72986C36.4616 2.60515 36.5198 2.46521 36.5492 2.31802C36.5787 2.17083 36.5789 2.01929 36.5497 1.87204C36.5206 1.72478 36.4628 1.58471 36.3795 1.45982L35.7459 0.509102C35.6627 0.384192 35.5557 0.276902 35.4309 0.193361C35.3062 0.10982 35.1663 0.0516636 35.0191 0.0222131C34.8719 -0.00723744 34.7204 -0.00740501 34.5731 0.0217199C34.4259 0.0508448 34.2858 0.108692 34.1609 0.191957L26.2994 5.26342C22.7451 4.63627 19.373 4.57127 18.2858 4.57127C15.6822 4.57127 0 4.89627 0 12.582V24.0271C0 26.1893 1.9643 28.1471 5.14289 29.5886V22.3099C5.14289 21.8553 5.3235 21.4192 5.64499 21.0978C5.96649 20.7763 6.40252 20.5956 6.85718 20.5956C7.31184 20.5956 7.74788 20.7763 8.06937 21.0978C8.39087 21.4192 8.57148 21.8553 8.57148 22.3099V30.805C10.9322 31.4557 13.6479 31.8807 16.5715 32V24.5992C16.5715 24.1446 16.7521 23.7085 17.0736 23.3871C17.3951 23.0656 17.8312 22.8849 18.2858 22.8849C18.7405 22.8849 19.1765 23.0656 19.498 23.3871C19.8195 23.7085 20.0001 24.1446 20.0001 24.5992V32C22.9237 31.8807 25.6394 31.4557 28.0002 30.805V22.3099C28.0002 21.8553 28.1808 21.4192 28.5023 21.0978C28.8238 20.7763 29.2598 20.5956 29.7145 20.5956C30.1691 20.5956 30.6052 20.7763 30.9266 21.0978C31.2481 21.4192 31.4288 21.8553 31.4288 22.3099V29.5886C34.6073 28.1471 36.5716 26.1893 36.5716 24.0271V12.582C36.5716 9.48773 34.0173 7.59914 30.8102 6.43199ZM18.2858 17.1599C10.0801 17.1599 3.42859 15.1106 3.42859 12.582C3.42859 10.0534 10.0801 8.00486 18.2858 8.00486C19.5108 8.00486 20.6951 8.05557 21.8344 8.14129L16.6337 11.4985C16.5088 11.5817 16.4016 11.6888 16.3181 11.8135C16.2346 11.9383 16.1766 12.0782 16.1472 12.2254C16.1178 12.3726 16.1177 12.5241 16.1469 12.6714C16.176 12.8186 16.2339 12.9586 16.3172 13.0835L16.9508 14.0342C17.034 14.1591 17.1411 14.2664 17.2658 14.3499C17.3905 14.4335 17.5304 14.4916 17.6776 14.5211C17.8248 14.5505 17.9764 14.5507 18.1236 14.5216C18.2709 14.4924 18.4109 14.4346 18.5358 14.3513L27.0102 8.88558C30.7209 9.71416 33.143 11.0599 33.143 12.582C33.143 15.1106 26.4909 17.1599 18.2858 17.1599Z" fill="#F4F7FF"/>
</svg>
