<svg width="30" height="30" viewBox="0 0 30 30" fill="none" xmlns="http://www.w3.org/2000/svg">
<path d="M0 15C0 6.71573 6.71573 0 15 0C23.2843 0 30 6.71573 30 15C30 23.2843 23.2843 30 15 30C6.71573 30 0 23.2843 0 15Z" fill="#F4F7FF" fill-opacity="0.5"/>
<path d="M22.6594 19.3644L19.0004 15.7054C18.2786 14.9836 17.2006 14.843 16.3319 15.2711L13.001 11.9401V9.99971L9.00137 7L7.00156 8.9998L10.0013 12.9994H11.9417L15.2726 16.3303C14.8477 17.199 14.9852 18.277 15.707 18.9988L19.366 22.6578C19.8222 23.1141 20.5596 23.1141 21.0127 22.6578L22.6594 21.0111C23.1125 20.5549 23.1125 19.8175 22.6594 19.3644ZM17.3662 14.0306C18.2505 14.0306 19.0816 14.3743 19.7066 14.9992L20.3128 15.6054C20.8065 15.3898 21.2752 15.0898 21.6814 14.6836C22.8406 13.5244 23.2344 11.8933 22.8656 10.4122C22.7969 10.1309 22.4438 10.0341 22.2376 10.2403L19.9128 12.5651L17.7911 12.212L17.438 10.0903L19.7628 7.76555C19.969 7.55932 19.8691 7.20623 19.5847 7.13436C18.1036 6.76877 16.4725 7.16248 15.3164 8.31862C14.4258 9.20916 14.0071 10.384 14.029 11.5558L16.5944 14.1212C16.8475 14.0618 17.11 14.0306 17.3662 14.0306ZM14.1196 16.5928L12.3479 14.8211L7.58588 19.5863C6.80471 20.3674 6.80471 21.6329 7.58588 22.4141C8.36705 23.1953 9.63256 23.1953 10.4137 22.4141L14.2759 18.552C14.0384 17.9302 13.9665 17.2521 14.1196 16.5928ZM9.00137 21.7486C8.58891 21.7486 8.25144 21.4111 8.25144 20.9986C8.25144 20.583 8.58578 20.2487 9.00137 20.2487C9.41695 20.2487 9.75129 20.583 9.75129 20.9986C9.75129 21.4111 9.41695 21.7486 9.00137 21.7486Z" fill="#F4F7FF"/>
</svg>
