<svg width="30" height="30" viewBox="0 0 30 30" fill="none" xmlns="http://www.w3.org/2000/svg">
<path d="M0 15C0 6.71573 6.71573 0 15 0C23.2843 0 30 6.71573 30 15C30 23.2843 23.2843 30 15 30C6.71573 30 0 23.2843 0 15Z" fill="#F4F7FF" fill-opacity="0.5"/>
<path d="M7 19.8538V22.5556C7 22.8045 7.19553 23 7.44438 23H10.1462C10.2618 23 10.3773 22.9556 10.4573 22.8667L20.1626 13.1703L16.8297 9.83738L7.13332 19.5338C7.04444 19.6227 7 19.7293 7 19.8538ZM22.74 10.5928C23.0867 10.2462 23.0867 9.68629 22.74 9.33967L20.6603 7.25996C20.3137 6.91335 19.7538 6.91335 19.4072 7.25996L17.7807 8.8864L21.1136 12.2193L22.74 10.5928Z" fill="#F4F7FF"/>
</svg>
