<svg width="30" height="30" viewBox="0 0 30 30" fill="none" xmlns="http://www.w3.org/2000/svg">
<path d="M0 15C0 6.71573 6.71573 0 15 0C23.2843 0 30 6.71573 30 15C30 23.2843 23.2843 30 15 30C6.71573 30 0 23.2843 0 15Z" fill="#F4F7FF" fill-opacity="0.5"/>
<path d="M13.2978 18.1867L14.5556 19.4444L19 15L14.5556 10.5556L13.2978 11.8133L15.5956 14.1111H7V15.8889H15.5956L13.2978 18.1867ZM21.2222 7H8.77778C7.79556 7 7 7.79556 7 8.77778V12.3333H8.77778V8.77778H21.2222V21.2222H8.77778V17.6667H7V21.2222C7 22.2044 7.79556 23 8.77778 23H21.2222C22.2044 23 23 22.2044 23 21.2222V8.77778C23 7.79556 22.2044 7 21.2222 7Z" fill="#F4F7FF"/>
</svg>
