<svg width="64" height="64" viewBox="0 0 64 64" fill="none" xmlns="http://www.w3.org/2000/svg">
<rect x="1" y="1" width="62" height="62" rx="9" stroke="#F4F7FF" stroke-width="2"/>
<path d="M32.346 31.1504L32.3503 25.8122C32.3503 25.6525 32.2868 25.4994 32.1739 25.3865C32.061 25.2736 31.9079 25.2101 31.7482 25.2101C31.5885 25.2101 31.4354 25.2736 31.3224 25.3865C31.2095 25.4994 31.1461 25.6525 31.1461 25.8122L31.1503 31.1504L25.8122 31.1462C25.6525 31.1462 25.4993 31.2096 25.3864 31.3225C25.2735 31.4354 25.2101 31.5886 25.2101 31.7482C25.2101 31.9079 25.2735 32.0611 25.3864 32.174C25.4993 32.2869 25.6525 32.3503 25.8122 32.3503L31.1503 32.3461L31.1461 37.6843C31.1458 37.7634 31.1611 37.8419 31.1913 37.9151C31.2214 37.9883 31.2658 38.0548 31.3217 38.1107C31.3777 38.1667 31.4442 38.211 31.5174 38.2412C31.5906 38.2713 31.669 38.2867 31.7482 38.2863C31.8273 38.2867 31.9058 38.2713 31.979 38.2412C32.0522 38.211 32.1187 38.1667 32.1746 38.1107C32.2306 38.0548 32.275 37.9883 32.3051 37.9151C32.3352 37.8419 32.3506 37.7634 32.3503 37.6843L32.346 32.3461L37.6842 32.3503C37.7634 32.3506 37.8418 32.3353 37.915 32.3052C37.9882 32.275 38.0547 32.2307 38.1107 32.1747C38.1666 32.1187 38.211 32.0522 38.2411 31.979C38.2713 31.9058 38.2866 31.8274 38.2863 31.7482C38.2866 31.6691 38.2713 31.5906 38.2411 31.5174C38.211 31.4443 38.1666 31.3778 38.1107 31.3218C38.0547 31.2658 37.9882 31.2215 37.915 31.1913C37.8418 31.1612 37.7634 31.1458 37.6842 31.1462L32.346 31.1504Z" fill="#F4F7FF"/>
</svg>
