<svg width="75" height="75" viewBox="0 0 75 75" fill="none" xmlns="http://www.w3.org/2000/svg">
<path d="M57.525 12.975C56.635 12.975 55.765 13.2389 55.0249 13.7334C54.2849 14.2279 53.7081 14.9307 53.3675 15.7529C53.0269 16.5752 52.9378 17.48 53.1115 18.3529C53.2851 19.2258 53.7137 20.0276 54.343 20.657C54.9724 21.2863 55.7742 21.7149 56.6471 21.8885C57.52 22.0622 58.4248 21.9731 59.2471 21.6325C60.0693 21.2919 60.7721 20.7151 61.2666 19.9751C61.7611 19.235 62.025 18.365 62.025 17.475C62.025 16.2815 61.5509 15.1369 60.707 14.293C59.8631 13.4491 58.7185 12.975 57.525 12.975ZM74.775 22.05C74.7021 18.9386 74.1193 15.8603 73.05 12.9375C72.0965 10.4367 70.6124 8.17229 68.7 6.3C66.8431 4.37785 64.5733 2.90316 62.0625 1.9875C59.1475 0.885603 56.0657 0.289537 52.95 0.225C48.975 -2.08616e-07 47.7 0 37.5 0C27.3 0 26.025 -2.08616e-07 22.05 0.225C18.9343 0.289537 15.8525 0.885603 12.9375 1.9875C10.4313 2.91243 8.1635 4.38585 6.3 6.3C4.37785 8.15692 2.90316 10.4266 1.9875 12.9375C0.885603 15.8525 0.289537 18.9343 0.225 22.05C-2.08616e-07 26.025 0 27.3 0 37.5C0 47.7 -2.08616e-07 48.975 0.225 52.95C0.289537 56.0657 0.885603 59.1475 1.9875 62.0625C2.90316 64.5733 4.37785 66.8431 6.3 68.7C8.1635 70.6141 10.4313 72.0876 12.9375 73.0125C15.8525 74.1144 18.9343 74.7105 22.05 74.775C26.025 75 27.3 75 37.5 75C47.7 75 48.975 75 52.95 74.775C56.0657 74.7105 59.1475 74.1144 62.0625 73.0125C64.5733 72.0968 66.8431 70.6221 68.7 68.7C70.6209 66.8347 72.1063 64.5682 73.05 62.0625C74.1193 59.1397 74.7021 56.0614 74.775 52.95C74.775 48.975 75 47.7 75 37.5C75 27.3 75 26.025 74.775 22.05ZM68.025 52.5C67.9977 54.8804 67.5666 57.2389 66.75 59.475C66.1513 61.107 65.1895 62.5816 63.9375 63.7875C62.7212 65.0269 61.2496 65.9866 59.625 66.6C57.3889 67.4166 55.0304 67.8477 52.65 67.875C48.9 68.0625 47.5125 68.1 37.65 68.1C27.7875 68.1 26.4 68.1 22.65 67.875C20.1783 67.9213 17.7172 67.5407 15.375 66.75C13.8217 66.1053 12.4176 65.1479 11.25 63.9375C10.0053 62.7328 9.05566 61.257 8.475 59.625C7.55946 57.3568 7.05166 54.9448 6.975 52.5C6.975 48.75 6.75 47.3625 6.75 37.5C6.75 27.6375 6.75 26.25 6.975 22.5C6.99181 20.0665 7.43606 17.6548 8.2875 15.375C8.94768 13.7922 9.96099 12.3812 11.25 11.25C12.3893 9.96063 13.7973 8.93661 15.375 8.25C17.6608 7.42516 20.07 6.99405 22.5 6.975C26.25 6.975 27.6375 6.75 37.5 6.75C47.3625 6.75 48.75 6.75 52.5 6.975C54.8804 7.0023 57.2389 7.43342 59.475 8.25C61.1791 8.88245 62.7086 9.91068 63.9375 11.25C65.1664 12.4019 66.1266 13.8102 66.75 15.375C67.5835 17.6585 68.0148 20.0692 68.025 22.5C68.2125 26.25 68.25 27.6375 68.25 37.5C68.25 47.3625 68.2125 48.75 68.025 52.5ZM37.5 18.2625C33.6968 18.2699 29.9811 19.4045 26.8225 21.5228C23.6638 23.6412 21.2039 26.6482 19.7536 30.1641C18.3033 33.6799 17.9277 37.5467 18.6742 41.276C19.4207 45.0052 21.2559 48.4295 23.9478 51.1162C26.6397 53.8028 30.0675 55.6313 33.7982 56.3706C37.5289 57.1098 41.395 56.7267 44.908 55.2695C48.421 53.8124 51.4233 51.3466 53.5355 48.1839C55.6477 45.0211 56.775 41.3032 56.775 37.5C56.78 34.9691 56.2845 32.4623 55.3172 30.1236C54.3498 27.7849 52.9296 25.6605 51.1383 23.8727C49.3469 22.0848 47.2198 20.6688 44.8792 19.706C42.5387 18.7432 40.0308 18.2526 37.5 18.2625ZM37.5 49.9875C35.0302 49.9875 32.6159 49.2551 30.5623 47.883C28.5088 46.5108 26.9082 44.5606 25.9631 42.2788C25.0179 39.997 24.7706 37.4861 25.2524 35.0638C25.7343 32.6415 26.9236 30.4164 28.67 28.67C30.4164 26.9236 32.6415 25.7343 35.0638 25.2524C37.4861 24.7706 39.997 25.0179 42.2788 25.9631C44.5606 26.9082 46.5108 28.5088 47.883 30.5623C49.2551 32.6159 49.9875 35.0302 49.9875 37.5C49.9875 39.1399 49.6645 40.7637 49.0369 42.2788C48.4094 43.7938 47.4896 45.1704 46.33 46.33C45.1704 47.4896 43.7938 48.4094 42.2788 49.0369C40.7637 49.6645 39.1399 49.9875 37.5 49.9875Z" fill="#FF006E"/>
</svg>
