<svg width="75" height="42" viewBox="0 0 75 42" fill="none" xmlns="http://www.w3.org/2000/svg">
<path d="M0 34.1322C0 35.0629 0.337414 35.7666 1.0121 36.2436C1.68685 36.7205 2.4081 36.8892 3.1759 36.7496C3.89714 36.61 4.40319 36.3541 4.69412 35.9818C4.9849 35.6096 5.13036 34.993 5.13036 34.1322V24.0112C5.13036 23.2899 4.88027 22.6791 4.38002 22.1789C3.87983 21.6787 3.26908 21.4286 2.54777 21.4286C1.84977 21.4286 1.25068 21.6787 0.750421 22.1789C0.250164 22.6791 0 23.2899 0 24.0112V34.1322ZM8.02699 38.4597C8.02699 39.1346 8.2655 39.6405 8.74244 39.978C9.21945 40.3154 9.8302 40.484 10.5747 40.484C11.3425 40.484 11.9648 40.3153 12.4418 39.978C12.9188 39.6406 13.1573 39.1346 13.1573 38.4597V14.8674C13.1573 14.1694 12.9071 13.5702 12.4069 13.07C11.9067 12.5698 11.2959 12.3197 10.5747 12.3197C9.87669 12.3197 9.27752 12.5698 8.77734 13.07C8.27708 13.5703 8.02699 14.1694 8.02699 14.8674V38.4597ZM16.0191 39.5765C16.0191 40.2513 16.2634 40.7573 16.752 41.0948C17.2406 41.4321 17.8688 41.6008 18.6366 41.6008C19.3811 41.6008 19.9919 41.4321 20.4688 41.0948C20.9458 40.7573 21.1843 40.2513 21.1843 39.5765V18.0433C21.1843 17.322 20.9342 16.7054 20.434 16.1936C19.9337 15.6817 19.3346 15.4258 18.6366 15.4258C17.9153 15.4258 17.2988 15.6817 16.7869 16.1936C16.2751 16.7054 16.0191 17.322 16.0191 18.0433L16.0191 39.5765ZM24.0461 39.6812C24.0461 40.961 24.9069 41.6008 26.6287 41.6008C28.3503 41.6008 29.2112 40.961 29.2112 39.6812V4.78129C29.2112 2.8269 28.6179 1.72175 27.4313 1.4658C26.6635 1.27964 25.9073 1.5007 25.1628 2.1289C24.4182 2.7571 24.046 3.64118 24.046 4.78129V39.6812H24.0461ZM32.2127 40.6933V2.7222C32.2127 1.51236 32.5733 0.791113 33.2946 0.558399C34.8535 0.186157 36.4007 0 37.9363 0C41.496 0 44.8116 0.837599 47.8827 2.5128C50.9539 4.18799 53.4377 6.47394 55.3339 9.37064C57.2301 12.2674 58.3295 15.4607 58.6319 18.9507C60.0512 18.3458 61.5634 18.0433 63.1688 18.0433C66.4262 18.0433 69.2124 19.195 71.5274 21.4984C73.8424 23.8019 75 26.5706 75 29.8047C75 33.0621 73.8424 35.8424 71.5274 38.1458C69.2124 40.4492 66.4379 41.6009 63.2037 41.6009L32.8408 41.566C32.6313 41.4962 32.4743 41.3682 32.3696 41.1821C32.2649 40.996 32.2127 40.8329 32.2127 40.6933Z" fill="#8338EC"/>
</svg>
