<svg width="75" height="75" viewBox="0 0 75 75" fill="none" xmlns="http://www.w3.org/2000/svg">
<path d="M37.5 0C16.8234 0 0 16.8234 0 37.5C0 58.1766 16.8234 75 37.5 75C58.1766 75 75 58.1766 75 37.5C75 16.8234 58.1766 0 37.5 0ZM54.7031 54.1313C54.5267 54.3833 54.3023 54.5982 54.0428 54.7634C53.7832 54.9286 53.4936 55.041 53.1905 55.0941C52.8875 55.1472 52.5769 55.14 52.2766 55.073C51.9763 55.0059 51.6923 54.8802 51.4406 54.7031C42.6516 48.525 28.0312 48.1828 18.1594 50.4844C17.8593 50.5539 17.5484 50.5637 17.2446 50.5131C16.9407 50.4626 16.6498 50.3526 16.3884 50.1896C16.127 50.0266 15.9003 49.8137 15.7212 49.5631C15.5421 49.3125 15.4141 49.029 15.3445 48.7289C15.275 48.4288 15.2652 48.118 15.3158 47.8141C15.3664 47.5102 15.4763 47.2193 15.6393 46.9579C15.8023 46.6965 16.0152 46.4698 16.2658 46.2907C16.5165 46.1116 16.7999 45.9836 17.1 45.9141C27.9516 43.4016 44.1703 43.8609 54.1313 50.8688C54.6394 51.2258 54.985 51.77 55.0922 52.3817C55.1994 52.9934 55.0595 53.6226 54.7031 54.1313ZM59.2781 44.9859C59.0984 45.2359 58.8712 45.448 58.6095 45.6102C58.3478 45.7723 58.0567 45.8813 57.7529 45.9309C57.4491 45.9806 57.1384 45.9698 56.8387 45.8994C56.539 45.8289 56.2561 45.7001 56.0062 45.5203C45.8109 38.2031 33.2859 36.3844 16.5703 39.7969C16.2687 39.8587 15.9578 39.8606 15.6555 39.8023C15.3531 39.744 15.0652 39.6268 14.8082 39.4572C14.5512 39.2877 14.33 39.0692 14.1575 38.8142C13.9849 38.5592 13.8642 38.2727 13.8023 37.9711C13.7405 37.6695 13.7386 37.3586 13.7969 37.0563C13.8552 36.7539 13.9724 36.466 14.142 36.209C14.3115 35.9519 14.53 35.7308 14.785 35.5582C15.04 35.3857 15.3265 35.265 15.6281 35.2031C33.7078 31.5141 47.4047 33.5766 58.7391 41.7094C59.2439 42.0732 59.5841 42.6223 59.6851 43.2364C59.7861 43.8504 59.6398 44.4795 59.2781 44.9859ZM63.9 32.7047C63.7272 32.9597 63.5058 33.1782 63.2484 33.3475C62.9911 33.5169 62.7029 33.6339 62.4003 33.6918C62.0978 33.7497 61.7867 33.7474 61.4851 33.685C61.1834 33.6226 60.897 33.5013 60.6422 33.3281C47.7188 24.5578 28.0734 24.5156 15.3562 29.0156C15.0657 29.1181 14.7578 29.1624 14.4502 29.1459C14.1425 29.1294 13.8411 29.0524 13.5632 28.9195C13.2853 28.7865 13.0363 28.6001 12.8304 28.3709C12.6245 28.1417 12.4658 27.8741 12.3633 27.5836C12.2608 27.293 12.2165 26.9852 12.233 26.6775C12.2495 26.3698 12.3265 26.0684 12.4594 25.7905C12.5924 25.5126 12.7788 25.2636 13.008 25.0577C13.2372 24.8518 13.5048 24.6931 13.7953 24.5906C27.6281 19.7016 49.0641 19.8047 63.2812 29.4469C63.7935 29.7983 64.1461 30.338 64.262 30.9483C64.3779 31.5586 64.2478 32.1899 63.9 32.7047Z" fill="#FFBE0B"/>
</svg>
