<svg width="75" height="62" viewBox="0 0 75 62" fill="none" xmlns="http://www.w3.org/2000/svg">
<path d="M75 7.31475C72.1813 8.53761 69.2003 9.34599 66.15 9.71475C69.3681 7.7922 71.7798 4.76769 72.9375 1.20225C69.9133 3.00249 66.6029 4.27086 63.15 4.95225C60.842 2.4494 57.7686 0.783362 54.4118 0.215444C51.0549 -0.352475 47.6045 0.209845 44.6017 1.81421C41.5989 3.41858 39.2135 5.97424 37.8196 9.08039C36.4258 12.1865 36.1023 15.6675 36.9 18.9772C30.7854 18.668 24.8042 17.0758 19.345 14.3042C13.8858 11.5326 9.07067 7.6436 5.2125 2.88975C3.85927 5.25288 3.1482 7.92908 3.15 10.6523C3.1452 13.1812 3.76581 15.6721 4.95658 17.9031C6.14735 20.1342 7.87132 22.0362 9.975 23.4398C7.52991 23.3732 5.13707 22.7171 3 21.5273V21.7148C3.01833 25.2581 4.25998 28.6863 6.51493 31.4196C8.76988 34.1529 11.8997 36.0234 15.375 36.7148C14.0372 37.1219 12.6483 37.3365 11.25 37.3523C10.2821 37.3409 9.31658 37.2532 8.3625 37.0898C9.35216 40.1378 11.2673 42.8015 13.8415 44.7104C16.4157 46.6192 19.5209 47.6781 22.725 47.7397C17.3145 51.997 10.6346 54.3205 3.75 54.3398C2.49651 54.3439 1.24401 54.2687 0 54.1148C7.02911 58.6532 15.2205 61.0625 23.5875 61.0522C29.3613 61.1122 35.0893 60.0211 40.4367 57.8425C45.7841 55.664 50.6438 52.4418 54.732 48.3641C58.8202 44.2864 62.0549 39.435 64.2471 34.0931C66.4393 28.7513 67.5452 23.0262 67.5 17.2522C67.5 16.6147 67.5 15.9398 67.5 15.2648C70.4426 13.0703 72.9805 10.3801 75 7.31475Z" fill="#0099FF"/>
</svg>
